<svg height="63" width="142" xmlns="http://www.w3.org/2000/svg" xmlns:xlink="http://www.w3.org/1999/xlink"><defs><path d="M.123.116h29.266v50.15H.123z" id="a"></path><path d="M.013.088H14.25v14.286H.013z" id="c"></path><path d="M0 .072h31.245v31.649H0z" id="e"></path><path d="M.116.164h25.996v44.123H.116z" id="g"></path></defs><g fill="none" fill-rule="evenodd"><path d="M62.128 43.995h7.112v-29.17h-7.112z" fill="#2B3146"></path><g transform="translate(74.073 11.879)"><mask fill="#fff" id="b"><use xlink:href="#a"></use></mask><path d="M14.697 24.926c-4.139 0-7.52-3.005-7.52-8.073 0-5.068 3.381-8.192 7.52-8.192 4.081 0 7.463 3.183 7.463 8.192s-3.382 8.073-7.463 8.073m14.517-8.073c0-3.183-.817-6.07-3.032-8.604l3.207-4.125L24.142.116 21.285 3.77c-1.982-1.355-4.314-1.65-6.588-1.65C6.652 2.12.123 7.777.123 16.853c0 9.075 5.596 14.615 14.574 14.615 3.557 0 7.288 1.826 7.288 5.834 0 4.007-3.207 6.246-7.288 6.246-4.08 0-7.52-2.475-7.52-6.246H.123c0 7.838 6.238 12.965 14.574 12.965 8.337 0 14.4-4.95 14.4-12.965 0-3.713-1.166-7.19-5.946-9.606 4.722-2.18 6.063-7.248 6.063-10.843" fill="#2B3146" mask="url(#b)"></path></g><path d="M137.88 29.498c0 8.368-5.655 15.145-14.983 15.145s-14.924-6.777-14.924-15.145c0-8.31 5.713-15.145 14.866-15.145l.058 6.541c-5.13 0-7.812 4.243-7.812 8.604 0 4.42 2.624 8.545 7.812 8.545 5.189 0 7.812-4.126 7.812-8.545h7.171z" fill="#2B3146"></path><g transform="translate(127.426 10.308)"><mask fill="#fff" id="d"><use xlink:href="#c"></use></mask><path d="M.013.088c4.506.003 14.23.036 14.23.036s.007 9.594.007 14.25l-6.378-.004c.004-2.743.076-7.715.076-7.715s-5.424-.007-7.9-.004L.013.088z" fill="#E73C68" mask="url(#d)"></path></g><path d="M69.882 6.75c0 5.599-8.395 5.599-8.395 0 0-5.598 8.395-5.598 8.395 0" fill="#2B3146"></path><g transform="translate(0 12.577)"><mask fill="#fff" id="f"><use xlink:href="#e"></use></mask><path d="M7.43 15.896c0 4.618 2.742 8.928 8.165 8.928 5.418 0 8.16-4.31 8.16-8.928 0-4.556-3.17-8.99-8.16-8.99-5.364 0-8.166 4.434-8.166 8.99m23.816 0c0 8.743-5.909 15.825-15.65 15.825C5.845 31.72 0 24.639 0 15.896 0 7.216 5.969.072 15.53.072c9.563 0 15.715 7.144 15.715 15.824" fill="#2B3146" mask="url(#f)"></path></g><g transform="translate(31.425 .01)"><mask fill="#fff" id="h"><use xlink:href="#g"></use></mask><path d="M26.112 28.463c0-.566-.027-1.125-.079-1.677V.164h-7.545v14.518c-2.282-1.297-5.008-2.043-8.091-2.043-4.18 0-7.673 1.365-10.281 3.628 1.883 1.61 3.32 3.673 4.23 6.021 1.37-1.694 3.42-2.815 6.116-2.815 4.397 0 7.378 3.44 8.026 7.375v3.356c-.608 3.905-3.297 7.187-8.026 7.187-2.695 0-4.727-1.065-6.09-2.703-.897 2.374-2.325 4.447-4.22 6.054 2.6 2.215 6.088 3.545 10.31 3.545 3.081 0 5.778-.71 8.026-1.955v1.525l7.545.01v-13.69c.052-.563.08-1.134.08-1.714" fill="#2B3146" mask="url(#h)"></path></g></g></svg>